<?xml version="1.0" encoding="utf-8"?>
<!-- Generator: Adobe Illustrator 18.0.0, SVG Export Plug-In . SVG Version: 6.00 Build 0)  -->
<!DOCTYPE svg PUBLIC "-//W3C//DTD SVG 1.1//EN" "http://www.w3.org/Graphics/SVG/1.1/DTD/svg11.dtd">
<svg version="1.1" id="Layer_1" xmlns="http://www.w3.org/2000/svg" xmlns:xlink="http://www.w3.org/1999/xlink" x="0px" y="0px"
	 viewBox="0 0 30 20" enable-background="new 0 0 30 20" xml:space="preserve">
<g>
	<path fill="#787878" d="M15.9,12.6c0,3.7-2.9,6.5-6.6,6.5c-3.8,0-7.3-2.6-7.3-7.9C2,6,7,0.9,13.9,0.9l0.1,0.4
		C9.6,1.4,6.7,4.7,6.7,6.4C11.4,4.9,15.9,7.5,15.9,12.6z M30,12.6c0,3.7-2.9,6.5-6.6,6.5c-3.8,0-7.3-2.6-7.3-7.9
		c0-5.1,5-10.3,11.9-10.2l0.1,0.4c-4.4,0.1-7.3,3.4-7.3,5.1C25.5,4.9,30,7.5,30,12.6z"/>
</g>
</svg>
