<?xml version="1.0" encoding="utf-8"?>
<!-- Generator: Adobe Illustrator 18.0.0, SVG Export Plug-In . SVG Version: 6.00 Build 0)  -->
<!DOCTYPE svg PUBLIC "-//W3C//DTD SVG 1.1//EN" "http://www.w3.org/Graphics/SVG/1.1/DTD/svg11.dtd">
<svg version="1.1" id="Layer_1" xmlns="http://www.w3.org/2000/svg" xmlns:xlink="http://www.w3.org/1999/xlink" x="0px" y="0px"
	 viewBox="0 0 42 28" enable-background="new 0 0 42 28" xml:space="preserve">
<g>
	<path fill="#787878" d="M20.8,17.6c0,5.3-4.2,9.3-9.4,9.3C6,26.9,1,23.2,1,15.5C1,8.2,8.1,0.8,18,0.9l0.1,0.5
		C11.8,1.7,7.7,6.3,7.7,8.7C14.4,6.6,20.8,10.4,20.8,17.6z M41,17.6c0,5.3-4.2,9.3-9.4,9.3c-5.4,0-10.4-3.7-10.4-11.3
		c0-7.3,7.1-14.7,17-14.6l0.1,0.5C32,1.7,27.9,6.3,27.9,8.7C34.6,6.6,41,10.4,41,17.6z"/>
</g>
</svg>
